<?xml version="1.0" encoding="utf-8"?>
<!-- Generator: Adobe Illustrator 16.0.0, SVG Export Plug-In . SVG Version: 6.00 Build 0)  -->
<!DOCTYPE svg PUBLIC "-//W3C//DTD SVG 1.1//EN" "http://www.w3.org/Graphics/SVG/1.1/DTD/svg11.dtd">
<svg version="1.1" id="Layer_1" xmlns="http://www.w3.org/2000/svg" xmlns:xlink="http://www.w3.org/1999/xlink" x="0px" y="0px"
	 width="287.985px" height="343.482px" viewBox="0 0 287.985 343.482" enable-background="new 0 0 287.985 343.482"
	 xml:space="preserve">
<g>
	<polygon opacity="0.7" fill="#5DB5A4" points="261.402,205.275 260.402,262.275 146.402,196.525 147.402,139.525 	"/>
	<polygon fill="#3C989E" points="81.902,111.436 81.902,233.365 145.902,270.275 145.902,328.275 31.902,262.525 31.902,82.275 
		145.902,16.525 145.902,74.525 	"/>
	<polygon opacity="0.7" points="260.133,82.405 206.202,109.016 199.232,104.996 	"/>
	<polygon opacity="0.7" points="261.402,205.275 210.983,233.772 203.402,229.4 	"/>
	<polygon opacity="0.7" points="146.402,196.525 207.789,174.354 200.6,169.784 	"/>
	<polygon opacity="0.7" fill="#5DB5A4" points="259.902,82.275 259.902,140.275 205.952,109.016 260.008,82.405 199.17,104.996 
		168.571,87.476 145.902,74.525 145.902,16.525 223.922,61.525 	"/>
	<polygon fill="#F57A82" points="260.152,262.275 261.027,205.275 145.902,270.275 145.902,328.275 	"/>
	<polygon fill="#F57A82" points="259.902,82.275 259.902,140.275 145.902,196.525 145.902,138.525 205.952,109.016 259.758,82.405 	
		"/>
</g>
</svg>
