<?xml version="1.0" encoding="utf-8"?>
<!-- Generator: Adobe Illustrator 16.0.0, SVG Export Plug-In . SVG Version: 6.00 Build 0)  -->
<!DOCTYPE svg PUBLIC "-//W3C//DTD SVG 1.1//EN" "http://www.w3.org/Graphics/SVG/1.1/DTD/svg11.dtd">
<svg version="1.1" id="Layer_1" xmlns="http://www.w3.org/2000/svg" xmlns:xlink="http://www.w3.org/1999/xlink" x="0px" y="0px"
	 width="960px" height="560px" viewBox="0 0 960 560" enable-background="new 0 0 960 560" xml:space="preserve">
<rect fill="#FFFFFF" width="960" height="560"/>
<g>
	<polygon opacity="0.7" fill="#5DB5A4" points="594.5,312.875 593.5,369.875 479.5,304.125 480.5,247.125 	"/>
	<polygon fill="#3C989E" points="415,219.035 415,340.965 479,377.875 479,435.875 365,370.125 365,189.875 479,124.125 
		479,182.125 	"/>
	<polygon opacity="0.7" points="593.23,190.005 539.3,216.615 532.33,212.595 	"/>
	<polygon opacity="0.7" points="594.5,312.875 544.081,341.372 536.5,337 	"/>
	<polygon opacity="0.7" points="479.5,304.125 540.887,281.953 533.697,277.383 	"/>
	<polygon opacity="0.7" fill="#5DB5A4" points="593,189.875 593,247.875 539.05,216.615 593.105,190.005 532.268,212.595 
		501.669,195.075 479,182.125 479,124.125 557.02,169.125 	"/>
	<polygon fill="#F57A82" points="593.25,369.875 594.125,312.875 479,377.875 479,435.875 	"/>
	<polygon fill="#F57A82" points="593,189.875 593,247.875 479,304.125 479,246.125 539.05,216.615 592.855,190.005 	"/>
</g>
</svg>
